<?xml version="1.0" encoding="utf-8"?>
<!-- Generator: Adobe Illustrator 25.0.0, SVG Export Plug-In . SVG Version: 6.00 Build 0)  -->
<svg version="1.1" id="Layer_1" xmlns="http://www.w3.org/2000/svg" xmlns:xlink="http://www.w3.org/1999/xlink" x="0px" y="0px"
	 viewBox="0 0 100 100" style="enable-background:new 0 0 100 100;" xml:space="preserve">
<style type="text/css">
	.st0{fill:none;stroke:#E1515D;stroke-miterlimit:10;}
</style>
<g>
	<path class="st0" d="M84.5,23.7L54.7,6.3c-3-1.8-7-1.8-10,0L14.9,23.7c-3,1.8-4.9,5.1-4.9,9v34.7c0,3.6,1.8,6.9,4.9,9l29.8,17.3
		c3,1.8,7,1.8,10,0l29.8-17.3c3-1.8,4.9-5.1,4.9-9V32.7C89.7,29.1,87.9,25.5,84.5,23.7z M66.9,70.3c-0.9,0.9-2.4,1.5-3.7,1.5H37.4
		c-3,0-5.8-2.7-5.8-6V34.2c0-3.3,2.4-6,5.8-6h25.2c3,0,5.5,2.4,5.5,5.4s-2.4,5.4-5.5,5.4H49.8v-1.8c0-1.2-1.5-1.8-2.4-0.9l-4.3,4.5
		c-0.6,0.6-0.6,1.5,0,1.8l4.3,4.5c0.9,0.9,2.4,0.3,2.4-0.9v-1.8h10.6c3,0,5.5,2.4,5.5,5.4c0,1.5-0.6,3-1.5,3.9s-2.4,1.5-3.7,1.5h-11
		v-1.8c0-1.2-1.5-1.8-2.4-0.9l-4.3,4.5c-0.6,0.6-0.6,1.5,0,2.1l4.3,4.5c0.9,0.9,2.4,0.3,2.4-0.9v-1.5h13.4c3,0,5.5,2.4,5.5,5.4
		C68.4,67.9,67.8,69.1,66.9,70.3z"/>
	<path class="st0" d="M84.5,23.7L54.7,6.3c-1.2-0.9-3-1.2-4.9-1.2v23h12.5c3,0,5.5,2.4,5.5,5.4s-2.4,5.4-5.5,5.4H49.5v-1.8
		c0-1.2-1.5-1.8-2.4-0.9l-4.3,4.5c-0.6,0.6-0.6,1.5,0,1.8l4.3,4.5c0.9,0.9,2.4,0.3,2.4-0.9v-1.8h10.6c3,0,5.5,2.4,5.5,5.4
		c0,1.5-0.6,3-1.5,3.9s-2.4,1.5-3.7,1.5H49.8v-1.8c0-1.2-1.5-1.8-2.4-0.9l-4.3,4.5c-0.6,0.6-0.6,1.5,0,1.8l4.3,4.5
		c0.9,0.9,2.4,0.3,2.4-0.9v-1.5h13.4c3,0,5.5,2.4,5.5,5.4c0,1.5-0.6,3-1.5,3.9c-0.9,0.9-2.4,1.5-3.7,1.5H50.5v23.3
		c1.8,0,3.3-0.6,4.9-1.5L85.1,76c3-1.8,4.9-5.1,4.9-9V32.4C89.7,29.1,87.9,25.5,84.5,23.7z"/>
</g>
</svg>
